HIERARCHY
ROOT Hips
{
	OFFSET -14.64140 90.27770 -84.91600
	CHANNELS 6 Xposition Yposition Zposition Zrotation Xrotation Yrotation
	JOINT Spine
	{
		OFFSET 0.00000 13.20850 -1.60436
		CHANNELS 3 Zrotation Xrotation Yrotation
		JOINT Spine1
		{
			OFFSET 0.00000 8.61716 0.00000
			CHANNELS 3 Zrotation Xrotation Yrotation
			JOINT Spine2
			{
				OFFSET 0.00000 8.61717 0.00000
				CHANNELS 3 Zrotation Xrotation Yrotation
				JOINT Spine3
				{
					OFFSET 0.00000 8.61717 0.00000
					CHANNELS 3 Zrotation Xrotation Yrotation
					JOINT Neck
					{
						OFFSET 0.00000 11.07920 1.10792
						CHANNELS 3 Zrotation Xrotation Yrotation
						JOINT Neck1
						{
							OFFSET 0.00000 7.08032 0.00000
							CHANNELS 3 Zrotation Xrotation Yrotation
							JOINT Head
							{
								OFFSET 0.00000 7.08031 0.00000
								CHANNELS 3 Zrotation Xrotation Yrotation
								End site
								{
									OFFSET 0.00000 0.00000 0.00000
								}
							}
						}
					}
					JOINT RightShoulder
					{
						OFFSET -0.01000 7.91373 5.19711
						CHANNELS 3 Zrotation Xrotation Yrotation
						JOINT RightArm
						{
							OFFSET -18.41580 0.00000 0.00000
							CHANNELS 3 Zrotation Xrotation Yrotation
							JOINT RightForeArm
							{
								OFFSET -29.11090 0.00000 0.00000
								CHANNELS 3 Zrotation Xrotation Yrotation
								JOINT RightHand
								{
									OFFSET -24.65040 0.00000 0.00000
									CHANNELS 3 Zrotation Xrotation Yrotation
									JOINT RightHandThumb1
									{
										OFFSET -5.35114 -0.85590 3.97906
										CHANNELS 3 Zrotation Xrotation Yrotation
										JOINT RightHandThumb2
										{
											OFFSET -4.52789 0.00000 0.00000
											CHANNELS 3 Zrotation Xrotation Yrotation
											JOINT RightHandThumb3
											{
												OFFSET -2.46976 0.00000 0.00000
												CHANNELS 3 Zrotation Xrotation Yrotation
												End site
												{
													OFFSET 0.00000 0.00000 0.00000
												}
											}
										}
									}
									JOINT RightHandIndex1
									{
										OFFSET -14.26970 0.00000 2.88139
										CHANNELS 3 Zrotation Xrotation Yrotation
										JOINT RightHandIndex2
										{
											OFFSET -5.48836 0.00000 0.00000
											CHANNELS 3 Zrotation Xrotation Yrotation
											JOINT RightHandIndex3
											{
												OFFSET -3.01859 0.00000 0.00000
												CHANNELS 3 Zrotation Xrotation Yrotation
												End site
												{
													OFFSET 0.00000 0.00000 0.00000
												}
											}
										}
									}
									JOINT RightHandMiddle1
									{
										OFFSET -14.26970 0.00000 -0.09147
										CHANNELS 3 Zrotation Xrotation Yrotation
										JOINT RightHandMiddle2
										{
											OFFSET -6.17441 0.00000 0.00000
											CHANNELS 3 Zrotation Xrotation Yrotation
											JOINT RightHandMiddle3
											{
												OFFSET -3.56743 0.00000 0.00000
												CHANNELS 3 Zrotation Xrotation Yrotation
												End site
												{
													OFFSET 0.00000 0.00000 0.00000
												}
											}
										}
									}
									JOINT RightHandRing1
									{
										OFFSET -12.69180 0.00000 -3.06433
										CHANNELS 3 Zrotation Xrotation Yrotation
										JOINT RightHandRing2
										{
											OFFSET -5.62556 0.00000 0.00000
											CHANNELS 3 Zrotation Xrotation Yrotation
											JOINT RightHandRing3
											{
												OFFSET -3.56744 0.00000 0.00000
												CHANNELS 3 Zrotation Xrotation Yrotation
												End site
												{
													OFFSET 0.00000 0.00000 0.00000
												}
											}
										}
									}
									JOINT RightHandPinky1
									{
										OFFSET -11.11390 0.00000 -6.03719
										CHANNELS 3 Zrotation Xrotation Yrotation
										JOINT RightHandPinky2
										{
											OFFSET -4.52789 0.00000 0.00000
											CHANNELS 3 Zrotation Xrotation Yrotation
											JOINT RightHandPinky3
											{
												OFFSET -2.46976 0.00000 0.00000
												CHANNELS 3 Zrotation Xrotation Yrotation
												End site
												{
													OFFSET 0.00000 0.00000 0.00000
												}
											}
										}
									}
								}
							}
						}
					}
					JOINT LeftShoulder
					{
						OFFSET 0.01000 7.91373 5.19711
						CHANNELS 3 Zrotation Xrotation Yrotation
						JOINT LeftArm
						{
							OFFSET 18.41580 0.00000 0.00000
							CHANNELS 3 Zrotation Xrotation Yrotation
							JOINT LeftForeArm
							{
								OFFSET 29.11090 0.00000 0.00000
								CHANNELS 3 Zrotation Xrotation Yrotation
								JOINT LeftHand
								{
									OFFSET 24.65040 0.00000 0.00000
									CHANNELS 3 Zrotation Xrotation Yrotation
									JOINT LeftHandThumb1
									{
										OFFSET 5.35114 -0.85590 3.97906
										CHANNELS 3 Zrotation Xrotation Yrotation
										JOINT LeftHandThumb2
										{
											OFFSET 4.52789 0.00000 0.00000
											CHANNELS 3 Zrotation Xrotation Yrotation
											JOINT LeftHandThumb3
											{
												OFFSET 2.46977 0.00000 0.00000
												CHANNELS 3 Zrotation Xrotation Yrotation
												End site
												{
													OFFSET 0.00000 0.00000 0.00000
												}
											}
										}
									}
									JOINT LeftHandIndex1
									{
										OFFSET 14.26970 0.00000 2.88139
										CHANNELS 3 Zrotation Xrotation Yrotation
										JOINT LeftHandIndex2
										{
											OFFSET 5.48836 0.00000 0.00000
											CHANNELS 3 Zrotation Xrotation Yrotation
											JOINT LeftHandIndex3
											{
												OFFSET 3.01859 0.00000 0.00000
												CHANNELS 3 Zrotation Xrotation Yrotation
												End site
												{
													OFFSET 0.00000 0.00000 0.00000
												}
											}
										}
									}
									JOINT LeftHandMiddle1
									{
										OFFSET 14.26970 0.00000 -0.09147
										CHANNELS 3 Zrotation Xrotation Yrotation
										JOINT LeftHandMiddle2
										{
											OFFSET 6.17440 0.00000 0.00000
											CHANNELS 3 Zrotation Xrotation Yrotation
											JOINT LeftHandMiddle3
											{
												OFFSET 3.56744 0.00000 0.00000
												CHANNELS 3 Zrotation Xrotation Yrotation
												End site
												{
													OFFSET 0.00000 0.00000 0.00000
												}
											}
										}
									}
									JOINT LeftHandRing1
									{
										OFFSET 12.69180 0.00000 -3.06433
										CHANNELS 3 Zrotation Xrotation Yrotation
										JOINT LeftHandRing2
										{
											OFFSET 5.62556 0.00000 0.00000
											CHANNELS 3 Zrotation Xrotation Yrotation
											JOINT LeftHandRing3
											{
												OFFSET 3.56744 0.00000 0.00000
												CHANNELS 3 Zrotation Xrotation Yrotation
												End site
												{
													OFFSET 0.00000 0.00000 0.00000
												}
											}
										}
									}
									JOINT LeftHandPinky1
									{
										OFFSET 11.11390 0.00000 -6.03719
										CHANNELS 3 Zrotation Xrotation Yrotation
										JOINT LeftHandPinky2
										{
											OFFSET 4.52789 0.00000 0.00000
											CHANNELS 3 Zrotation Xrotation Yrotation
											JOINT LeftHandPinky3
											{
												OFFSET 2.46976 0.00000 0.00000
												CHANNELS 3 Zrotation Xrotation Yrotation
												End site
												{
													OFFSET 0.00000 0.00000 0.00000
												}
											}
										}
									}
								}
							}
						}
					}
					JOINT pCube4
					{
						OFFSET 0.00000 10.91090 1.10792
						CHANNELS 3 Zrotation Xrotation Yrotation
						End site
						{
							OFFSET 0.00000 0.00000 0.00000
						}
					}
				}
			}
		}
	}
	JOINT RightUpLeg
	{
		OFFSET -9.98441 0.00000 0.00000
		CHANNELS 3 Zrotation Xrotation Yrotation
		JOINT RightLeg
		{
			OFFSET 0.00000 -42.11790 0.00000
			CHANNELS 3 Zrotation Xrotation Yrotation
			JOINT RightFoot
			{
				OFFSET 0.00000 -45.00020 -0.00001
				CHANNELS 3 Zrotation Xrotation Yrotation
				JOINT RightForeFoot
				{
					OFFSET 0.00000 -3.74820 0.00000
					CHANNELS 3 Zrotation Xrotation Yrotation
					JOINT RightToeBase
					{
						OFFSET 0.00000 0.06325 14.43120
						CHANNELS 3 Zrotation Xrotation Yrotation
						End site
						{
							OFFSET 0.00000 0.00000 0.00000
						}
					}
				}
			}
		}
	}
	JOINT LeftUpLeg
	{
		OFFSET 9.98441 0.00000 0.00000
		CHANNELS 3 Zrotation Xrotation Yrotation
		JOINT LeftLeg
		{
			OFFSET 0.00000 -42.11800 0.00000
			CHANNELS 3 Zrotation Xrotation Yrotation
			JOINT LeftFoot
			{
				OFFSET 0.00000 -45.00070 0.00000
				CHANNELS 3 Zrotation Xrotation Yrotation
				JOINT LeftForeFoot
				{
					OFFSET 0.00000 -3.74824 0.00000
					CHANNELS 3 Zrotation Xrotation Yrotation
					JOINT LeftToeBase
					{
						OFFSET 0.00000 0.06325 14.43110
						CHANNELS 3 Zrotation Xrotation Yrotation
						End site
						{
							OFFSET 0.00000 0.00000 0.00000
						}
					}
				}
			}
		}
	}
}
MOTION
Frames: 4
Frame Time: 0.050000
0.0010634381932119583 0.02998186262290059 -0.014158757701998238 0.009460247868315962 -0.036129176577864526 0.018908950854564226 -2.650206308547782 0.9959015474645116 -0.8381293987671462 -1.0361314908770374 3.807444552437966 0.4040422574699559 -1.2484576637797373 -1.6896079229255172 -0.52833062160673 0.0771728358846856 0.4698262263356865 -0.7104386780168745 0.007834131139418554 12.7111376399914 -0.30838150269558634 0.10253171560987592 -0.32438934263712305 -2.8857083833636095 0.3456294331355871 -15.624779078506869 -0.2515849276461775 -4.502292915500658 1.6723299540998482 -13.997036993277572 67.87695333861109 21.869107631202414 9.699382829500312 5.391045938662924 2.0368192003250463 69.98560802793196 15.50726039122975 -0.22203757480857536 -2.2541622124368526 4.543754518904675 -0.1555189634959188 -1.5569581495878309 -0.04384838175170481 -0.005278944590874844 -56.199886431649084 -0.0361388565530945 -0.0361326575636561 -56.19855809722763 -38.79763759300302 0.011946715312595387 -0.03119942488092419 -0.00675697432471231 0.0015543289742067313 -0.0041465730862440065 -0.014653762488668176 0.006306548081983278 -0.028628571800632458 -36.683497891263634 -0.011186838996979153 -0.022600962361614903 0.03919698658710367 -0.03874217242484163 0.020541322147903992 -0.023934034791422566 0.01204345358793636 0.04296069132162601 -19.768005980979023 -0.015355099528026668 -0.041729929053895644 -0.034996117496614416 0.02505483405268627 0.003999337351388632 0.004976395083849312 -0.024392990755754924 -0.043707637905629856 24.060042900058495 0.004470909422825429 -0.010015787652649766 28.892047755002828 0.005565617911460447 -0.002607968318071169 28.8605816230936 -0.02407434232276905 0.008421933592667337 5.188387212782785 1.2026040584276996 12.808445170782731 -67.61123691591786 30.73440678785333 -9.543447090994118 -13.364209877155824 0.6641705910733232 -69.7604109561844 -9.055939382029587 -0.13448433818576488 1.5612218695766176 -0.4782848689754982 0.08354155008982989 -8.116821946014165 0.012076423027199698 -0.04023891056860345 44.54566459247811 -0.00858054567775288 -0.0491555936661896 44.52166584154144 12.430558320822493 0.031132053408830324 -0.0121625043180308 0.014674688386831735 0.0040770345384163065 0.036566263827431576 0.027045094647084173 0.0018192573355682226 0.007723721966568232 11.070963854661207 0.0005148371177532448 0.04209592766017998 -0.0016978982281223671 0.029730718059681145 -0.01962702351494302 0.02306154346988147 -0.008936855589469394 -0.023150684631186268 4.769930662756845 -0.020569696895091385 -0.04300301659680496 0.022290052964389708 0.031075933163275688 -0.019362360419852023 -0.015691646695822573 -0.045812129232348744 -0.007543060298019529 -5.55235154413218 0.028480613416126857 0.04763883210400774 -6.679575862754128 0.007560673373281784 0.005020614650869283 -6.7198085353520325 -0.012403865739207898 0.004336705041648806 0.04001989097454595 -0.015347228057275 0.0076624756777595995 8.008687224489128 3.535925299220383 -19.209570254271558 -0.012943922421785435 10.415805418986725 0.020633630121099086 -5.620709185015688 -15.646064453731437 3.227781191438752 0.014165234812565689 -0.04975542526719164 -0.03676450030047973 -0.007423193503686846 4.7312070288279 0.02719162416909396 12.418612156747047 -8.204772833653749 6.865357975325489 0.01817500990350235 46.410206627514086 0.046349306533941655 -4.309080403623198 -14.753145915858404 -3.798087195359589 -0.018669569390319236 -0.027876723624443586 -0.01747871771891531 0.046838316323484494 -10.725973844497503 -0.011340971827156238 
-0.0180361734651598 -0.013706015196804392 0.003683077052957097 0.013250351332551716 0.03202635027015555 0.018252352757021504 -2.710988162266735 1.003097393408951 -0.7764672316323546 -0.9849349795506896 3.8070479571711275 0.424069364529623 -1.270697030875385 -1.71842214474721 -0.5978313095100405 0.07316868941980399 0.45008402762419525 -0.7581816547052056 -0.04448522430259303 12.629792115599136 -0.2568173823189502 0.128021931725333 -0.3756080553196657 -2.6655260736413355 0.29507256379507085 -15.585362983860295 -0.22483119853835648 -4.444767946152809 1.636351059479867 -13.983151522489088 67.63291634191079 21.82641470727338 9.359431532699045 3.961430731462445 1.905127160439591 71.17567976798593 15.8017759534607 -0.23201675294620594 -2.435959080874243 4.492197543293611 -0.16676671332895462 -1.5674288369939766 -0.01976840775509839 0.03912319102690919 -56.25037013400261 -0.0018333042571062443 -0.019137844964904414 -56.27013376377028 -38.763498483126874 0.015290838317431455 0.018618480118516564 0.027715132535070523 -0.01912056122557303 0.0013211133583853796 -0.016446154078404048 -0.013963449403281298 -0.01225350207576652 -36.7190608138203 -0.003974492767446107 0.009203580454751387 -0.04922306602784201 -0.04530969421463515 0.00824753423946178 -0.03262185712509938 0.019960165081723942 -0.04032983785191341 -19.763555851135067 0.03574558490064805 0.019637658664006657 0.048980271454822685 -0.040331183301041316 -0.025516489615134173 0.0072844816536549025 0.03914087186823537 0.02570563017008449 24.06421613831566 0.034850581331464535 0.006416921817289728 28.874396604584277 -0.03985920334312116 0.032150449703566085 28.881345423831092 -0.01654660370825012 0.015165039836525946 5.231386561009952 1.2861218270387276 12.785179788329682 -67.53989809955732 30.621852285118127 -9.573686210998096 -11.842894120659162 -0.08312426674281043 -69.69747871583496 -9.198481859990801 -0.023834285582302446 1.5043882180265546 -0.44766800008475127 0.0826523058443002 -8.1412392210285 -0.018537492570793915 0.005670084354687438 44.5924532908249 -0.02896921136443503 0.03230290657077547 44.56560864907868 12.487790490513166 0.040806855374297575 -0.02073012352484903 -0.03116427325994509 -0.03482764811986935 0.01088496659137223 0.04094703663700518 -0.007843741054342669 0.03179298805193387 11.079943488155433 -0.046987471276019065 -0.018086816230317108 -0.008791026204555958 -0.009621419408399345 0.023165070067259538 0.00827078712521197 0.009809204053950298 -0.03434521945461002 4.763475960025764 -5.9986410484473416e-05 -0.018363178215748562 0.026698277339174598 0.015900156035087543 -0.04054137344571508 0.008250182398468961 -0.02742858021646598 0.003634410757402663 -5.561347507546313 0.029728647338122742 -0.026586142249132933 -6.766406302574335 -0.02876471701382665 -0.03808744158792857 -6.724650931531455 0.03691718975820239 0.02172094878779169 -0.012235292442123532 0.01897571306675447 0.047076087698609215 8.068238653733749 3.4647490519071207 -19.17853196795145 0.04984614502099876 10.393207379241971 0.02850329753173856 -5.662941258655796 -15.681126079695812 3.1614979678935566 -0.01882644342980585 0.03433837747942799 0.019849897372009987 -0.03233868487112292 4.705552973245942 -0.04978010200069024 12.508801664411674 -8.285317937075606 6.874724494647086 -0.02391277370333842 46.33495287922215 0.006908786714338119 -4.315804072198863 -14.720088478477635 -3.8291781805445857 -0.0023560935868544193 -0.013477166790375819 0.019344375857627487 0.016344998671575166 -10.74596235390529 -0.01383762973373514 
0.019113387998516307 -0.025495134657036102 0.005023780933356615 0.021363755144239275 -0.03281330241427539 -0.016307969590700022 -2.8660254630653497 0.9158061890927267 -0.775607332088385 -1.0772896254983075 3.758014338699999 0.428174149771896 -1.2384850505556926 -1.7710901487382047 -0.5094054370470551 -0.024296104750426768 0.4787502434521629 -0.7274200862143888 -0.03143667954781998 12.636450686418947 -0.08336810593833933 0.1439259127966054 -0.3773965455078281 -2.296567046639734 0.27613029554387275 -15.604497640229573 -0.18281899003084437 -4.565631548918373 1.6532795430519942 -13.9255491461265 67.33418125393871 21.99389561169098 9.347801379134008 2.126952509577611 1.602073028374317 71.84677327709363 16.121668008311484 -0.28818787803543916 -2.5199046859762544 4.537210281353296 -0.126072189863447 -1.612706695242276 0.03015746139686884 -0.02445554229239201 -56.26385643657894 0.012193009797795019 0.02998598970918308 -56.21316826857203 -38.72228921899954 0.041622069781814916 0.018232404568262434 0.034982563336457266 0.04046786075191888 -0.02832019542104521 -0.01636700102084459 0.032002822631146344 0.03398261553022426 -36.689830462592035 0.0054361620973078124 0.025086272189440612 -0.03213722207847596 -0.0029069550292316823 0.03909782635481063 -0.024353955057432354 -0.020670667787596377 -0.046131357847462154 -19.783998990780855 -0.04142089739036565 0.03731603911463832 0.02845342985466911 -0.010683139305510039 0.0496019823399027 -0.03537692036392616 0.011294197418741703 0.03757010271857572 24.034778744630177 -0.023613111372575 -0.02410235483665658 28.866159160834595 -0.029281117764240007 0.0162648744047806 28.914046960712007 -0.020614095474536142 0.04585904001841803 5.2755420705034215 1.2392910995011923 12.829895523044776 -67.4751694054052 30.438709284572816 -9.483314063136007 -9.775799545052546 -0.9215875562399058 -68.57410474695125 -9.275371910679642 0.20935427584773159 1.4867849700412927 -0.4501397293696322 0.07022155534646525 -8.15418332635477 0.0019675048822752612 -0.014072606384935337 44.53056798136437 -0.013117590795867691 0.027366567059253794 44.53266581226018 12.42025927903796 -0.030224920770269642 0.03528808971048723 -0.01599441839770588 -0.019351301613449653 -0.032292744777244094 -0.012503351447233179 -0.032721907831864266 0.04786813179148606 11.097510026182096 -0.024101583289078382 0.03860416575057665 -0.017634589149684517 0.04081346092033917 0.0431087051211483 0.006475152145986829 0.016022798581325198 0.0291679342841529 4.762882652128844 -0.016129748164952273 -0.036402520660754924 0.025091027592919094 -0.012911978236810569 0.013449255747955588 0.018387329839420048 0.02576250198297951 0.007822584863686336 -5.600752714488443 0.04156150511876444 0.01359647850513271 -6.769504799152333 0.04088310710373687 0.015339232823372283 -6.7037662167826415 0.005734645709729658 -0.001470777398724147 -0.02107062032224615 0.020075868288176684 -0.03034169434862152 8.040615644890723 3.46097240338064 -19.258633253216278 -0.03550411251186783 10.362545291177607 0.009384851496560525 -5.636000739888806 -15.61079865768783 3.1864901007623967 -0.0057982439886826295 -0.017980843003789902 0.014132760688048538 0.010841497132063324 4.669199724934109 -0.03358152146612341 12.495645459693467 -8.271131557551046 6.863209794712471 0.01748660941019949 46.41536532688835 0.039412976595280695 -4.301285642327192 -14.721266078312752 -3.8720927005271086 -0.024056517894000172 0.027177047440106693 0.04898450144430629 0.03445868900749934 -10.763253095029576 -0.03003464714005351 
-0.0025523958935349416 0.03683062227500154 0.04362769292461518 -0.013325476087882536 -0.037085593511117475 -0.0003420277609703361 -3.040000630754771 0.9510481631550477 -0.722036581891532 -1.041763940780187 3.82016839535588 0.4186251666527823 -1.2735900874514674 -1.8117921207901022 -0.4428402689291801 -0.15321082114385107 0.4341514424959302 -0.7600908946727725 -0.05828313233300816 12.675253464477805 0.08952477986038786 0.10314120171607696 -0.24723781935738257 -1.8848225776538667 0.2369036065599665 -15.429615327106163 -0.16190895428681018 -4.727268750655766 1.7393752775960885 -13.881129888835169 67.0416127574116 22.161280554135793 9.485881996996172 0.6327338745551787 1.340805049802279 71.79759497703618 16.67790190599255 -0.32077944993896235 -2.71377289667437 4.501553865778862 -0.08829737129406148 -1.5939232384991686 -0.0008893763356185693 0.01946461189883418 -56.19983067827525 0.0196221223282241 -0.0254597041026707 -56.2008015201959 -38.803923932273804 0.027601175557125275 0.011513649120239526 0.03301751793549777 -0.025424825150792963 -0.005612069880297896 -0.037370166852928904 0.03521177571685224 -0.02098347642889918 -36.69494837795658 -0.020869621057922144 -0.022992253843704034 -0.04831103544659986 -0.0453886156141748 -0.007400501340959966 0.03861732383116103 0.028638239295560104 0.011596465633229485 -19.70836346886538 -0.007152612770283876 0.016800890197404602 -0.0017450483548655778 -0.0140300522851508 -0.04181647847734834 -0.03441301549071409 0.04436490450151023 0.014425106493028247 24.075204398313208 -0.03684722551087732 0.04503209400526851 28.84047586277606 0.0193310433677705 -0.040946757762587306 28.89740049260957 -0.03907659746238714 0.01509196459566151 5.3515505669508165 1.247404838098384 12.877110820104324 -67.48861623494588 30.133051893589425 -9.174984982090429 -7.882885599499292 -1.886089809281494 -66.6431428912942 -9.472016380656148 0.5490718239211292 1.3910868490657546 -0.46288787536796616 0.08844736926074784 -8.164789782091317 0.033546851588800886 -0.013815506338630478 44.614698465341036 0.006059114021932312 0.026665721780035373 44.53990033554046 12.487792703170154 -0.018411383542020848 -0.03119621668434924 -0.04873171369763584 -0.013020706648506452 0.014680806300187185 -0.005084997754512355 0.012526442528468313 -0.017171021144081398 11.115241952777955 -0.02319971534552337 -0.012153594542461737 0.03349827594555982 -0.03808609327483978 -0.03223203336832775 -0.017899761883941514 -0.0047721139010792925 0.017924212781971892 4.743623084572264 0.010044263729012326 -0.04495800519927442 0.03372596748450615 0.023417997980406523 -0.04449956685230675 0.002265240054023263 0.029370420513859522 -0.024093256546775653 -5.6302391896579875 -0.038620240758743 -0.026066854106378143 -6.690612617374366 -0.015000677328632583 0.024612441244755992 -6.76743014678122 -0.033400827575820906 0.021571795570293074 0.016972385532986575 -0.03531547754934207 -0.04298978432217979 8.018203410169237 3.5217649883725484 -19.251335092783382 -0.018684810240287196 10.35881735221095 -0.01219234700819219 -5.587627336963655 -15.648548799994135 3.181623371561946 0.021217383305988446 -0.022703887418485523 -0.04535524686472376 0.03806124537281063 4.7001956880898375 0.02669971739297507 12.446871768933473 -8.20773213937733 6.878300795518793 -0.044582317797345734 46.362748032157576 0.04203487769424499 -4.355491904924892 -14.790268191009833 -3.8637093070911654 0.020748820040699084 -0.04810059595098895 0.014149869687864698 0.04892081523616762 -10.738569952014629 0.03507838049250804 
